<svg xmlns="http://www.w3.org/2000/svg" width="98" height="98" viewBox="0 0 98 98"><g><g><path fill="#55a1ff" d="M49.007.02C76.035.02 97.98 21.966 97.98 49.006c0 27.03-21.944 48.974-48.972 48.974C21.965 97.98.021 76.035.021 49.005.02 21.965 21.965.021 49.007.021zm-.014 4.985c-1.194 0-2.389.085-3.555.182-.612.11-1.292.195-1.959.264l-.708.084c-2.444.349-4.806.78-7.111 1.515 6.014-.43 12.194-.278 17.597 2.401 1.43 4.596 10.014.084 9.597 5.236.07.072.209.195.278.278-.125.11.111 1.042.264.263 1.486 1.682 4.61 5.142 1.333 4.711-4.347-.597-3.208 7.97-.083 9.513 2.972 1.612 4.653-1.612 1.597-3.209-.417-4 6.68 2.47 3.556 4.625-.14.068-.237.182-.361.264.152-.57-.209-.028-.167.096-3.583 2.598-1.556 8.668-2.945 12.711-2.458 5.486 6.18 3.054 4.89-1.252-1.57-3.958 6.569-2.15 4.805-4.97 4.944 2.623 4.472-4.42 2.403-6.766.972-3.762 3.5.445 2.305 2.499.18 1.93 1.875 2.374 3.209 2.934.069.04.138.04.263.081 1.167.54 1.875 1.276.625 3.474-1.472 4.903-6.389 5.18-10.402 4.262-4.07 1.693-4.82 6.625-7.111 9.96-2.292 4.153-4.195 10.263-.098 13.955 3.93 3.752 8.417.488 11.653-2.054 6.222-.803 6.792 6.514 3.736 10.223-.111.543-.18.888-.18 1.165 6.555-7.68 10.583-17.554 10.583-28.445 0-1.677-.18-3.36-.361-4.984-2.5 1.36-6.945-6.151-2.403-2.571.903-.054 1.458-.33 1.875-.721-.528-2.72-1.222-5.373-2.222-7.9-.445-.544-.889-1.043-1.25-1.334.014-.56-.042-1.085-.083-1.6v-.096C81.423 15.146 66.396 5.005 49.007 5.005zm-18.389 5.863c-6.708 5.736-16.958 14.75-21.07 23.194-1.846 5.294-1.541 10.627-1.333 16.181 1.89 5.377 5.542 9.82 8.445 14.667 1.86 2.333.958 5 .792 7.555-.028.014.027.085 0 .096-.07 1.543.11 3.03 1.43 4.349 2.5 3.222 6.18 5.696 7.556 9.696.013.024-.014.054 0 .081a43.691 43.691 0 0 0 9.68 4.363c1.764-.139 3.57-.559 5.25-1.156V89.8c2.778-1 5.445-2.486 7.736-4.181 3.833-4.651-3.333-8.331-7.208-7.012-4.472-2.986-7.722-7.556-12.792-9.778-4.125-4-13.416-1.516-13.25-9.071.43-3.583-2.458-5.333-4.625-7.028-1.666-5.54 8.486-7.595 8.625-1.502 3.347-.177 4.528-5.998 8.361-6.843 2-1.724 7.361.125 5.417-3.379 1.93-1.816 7.555-1.777 4.806-6.054-.93-4.152-6.042-6.152-7.737-1.416-4.61 1.248-2.75-8.806 1.959-7.473 3.402.195 2.958-2.763.889-3.723-.014-.153-.056-.22-.18-.096-.39-.153-.765-.278-1.237-.264-4.625-2.57 4.625-9.07-1.514-11.111zm13.07 6.85c-.18 0-.39.053-.542.08-2.083.417-1.458 3.89 1.07 1.515.708-.32 1.069-1.514 0-1.514-.209-.042-.362-.096-.528-.082zm3.458.789c-3.042.39-6.097 3.32-3.292 6.222 2.042 2.514-2.903 7.679 1.778 8.988 1.889-4.153 6.972-7.446 5.694-12.544-.527-2.152-2.36-2.887-4.18-2.666zm-9.153 5.07c-.194.013-.389.11-.625.18 1.222 2.29-1.625 5.21.542 7.194 2.472-1.013 3.041-7.555.083-7.375zm25.514 10.485c-.583.042-.708.445.347 1.433-.972 2.317 1.653 2.456 2.584.889.208-1.377-1.959-2.375-2.93-2.322zm-25.597 6.766c-.709.125-.875.568.61 1.596.181-.042 1.46-.334.723.444 2.306-1.375-.18-2.25-1.333-2.04zm-9.333 3.637c-.14-.014-.39.014-.806.18.055.058.111.154.18.183h.084c.43.11.86-.32.542-.363zm-9.07 12.363c-.597.167-.625.79.972 1.778.445.554 1.223 1.082 1.959.79.43-1.22-.459-1.97-1.417-2.306-.014-.07 0-.041 0-.085a4.267 4.267 0 0 0-.806-.177c-.291-.03-.513-.057-.708 0z"/></g></g></svg>