<svg xmlns="http://www.w3.org/2000/svg" width="77" height="71" viewBox="0 0 77 71"><g><g><path fill="#55a1ff" d="M37.366.018c2.766 0 5.024 1.911 5.519 4.523h.145l18.135 20.4H52.09L39.57 10.847c-.69.287-1.417.5-2.204.5-.774 0-1.516-.213-2.19-.5L22.64 24.941h-9.06L31.7 4.54h.144c.51-2.612 2.768-4.523 5.52-4.523zM4.52 29.467h67.972a4.519 4.519 0 0 1 4.524 4.537v2.265c0 2.391-1.837 4.272-4.17 4.462l-7.16 24.99c-2.269 4.535-4.522 4.535-6.792 4.535H18.103c-2.253 0-4.523 0-6.79-4.535L4.166 40.73c-2.349-.19-4.184-2.07-4.184-4.462v-2.265a4.529 4.529 0 0 1 4.538-4.537zm12.745 11.328c-2.513 0-4.15 1.892-3.62 4.249l3.187 14.096c.532 2.367 3.01 4.313 5.519 4.313h1.14c2.513 0 4.14-1.946 3.607-4.313l-3.186-14.096c-.53-2.357-3.008-4.249-5.52-4.249zm21.241 0a4.529 4.529 0 0 0-4.537 4.538v13.594a4.519 4.519 0 0 0 4.537 4.526 4.509 4.509 0 0 0 4.523-4.526V45.333a4.519 4.519 0 0 0-4.523-4.538zm20.1 0c-2.512 0-4.988 1.892-5.52 4.249L49.9 59.14c-.53 2.367 1.096 4.313 3.605 4.313h1.14c2.513 0 4.989-1.946 5.521-4.313l3.186-14.096c.53-2.357-1.095-4.249-3.605-4.249z"/></g></g></svg>