<svg xmlns="http://www.w3.org/2000/svg" width="67" height="67" viewBox="0 0 67 67"><g><g><path fill="#55a1ff" d="M65.46 63.564l-1.959 1.96a5.038 5.038 0 0 1-7.125 0L44.049 53.197a28.65 28.65 0 0 1-15.262 4.376C12.888 57.573 0 44.685 0 28.787 0 12.888 12.888 0 28.787 0c15.898 0 28.786 12.888 28.786 28.787a28.65 28.65 0 0 1-4.425 15.34l12.313 12.312a5.038 5.038 0 0 1 0 7.125zM28.788 7.967c-11.499 0-20.82 9.321-20.82 20.82 0 11.498 9.321 20.82 20.82 20.82 11.498 0 20.82-9.322 20.82-20.82 0-11.499-9.322-20.82-20.82-20.82z"/></g></g></svg>