<svg xmlns="http://www.w3.org/2000/svg" width="76" height="50" viewBox="0 0 76 50"><g><g><path fill="#55a1ff" d="M62.285 26.304c0 5.562-4.507 10.08-10.068 10.08-5.564 0-10.077-4.518-10.077-10.08 0-5.564 4.513-10.077 10.077-10.077 5.56 0 10.068 4.513 10.068 10.077zm-5.504-.119a4.211 4.211 0 0 0-4.211-4.212 4.21 4.21 0 0 0-4.213 4.212 4.21 4.21 0 0 0 4.213 4.213 4.211 4.211 0 0 0 4.211-4.213zM73.373 3.68a2.64 2.64 0 0 1 2.632 2.632V47.13a2.64 2.64 0 0 1-2.632 2.632H2.627a2.64 2.64 0 0 1-2.632-2.633V6.312A2.64 2.64 0 0 1 2.627 3.68h3.268c1.448 0 2.632-.827 2.632-1.839C8.527.83 9.71.001 11.159.001h9.71c1.447 0 2.631.828 2.631 1.84 0 1.01 1.185 1.838 2.632 1.838zM23.5 13.113a2.64 2.64 0 0 0-2.632-2.632h-9.71a2.64 2.64 0 0 0-2.631 2.632v1.621a2.64 2.64 0 0 0 2.632 2.632h9.71a2.64 2.64 0 0 0 2.631-2.632zm44.316 13.19c0-8.61-6.983-15.6-15.6-15.6-8.612 0-15.602 6.99-15.602 15.6 0 8.619 6.99 15.6 15.603 15.6 8.616 0 15.6-6.981 15.6-15.6z"/></g></g></svg>